<svg id="visual" viewBox="0 0 1920 1080" width="1920" height="1080" xmlns="http://www.w3.org/2000/svg" xmlns:xlink="http://www.w3.org/1999/xlink" version="1.1"><rect x="0" y="0" width="1920" height="1080" fill="#FFFFFF"></rect><path d="M0 702L45.7 719.5C91.3 737 182.7 772 274.2 775.5C365.7 779 457.3 751 548.8 740.7C640.3 730.3 731.7 737.7 823 722.7C914.3 707.7 1005.7 670.3 1097 657C1188.3 643.7 1279.7 654.3 1371.2 675.2C1462.7 696 1554.3 727 1645.8 733.5C1737.3 740 1828.7 722 1874.3 713L1920 704L1920 1081L1874.3 1081C1828.7 1081 1737.3 1081 1645.8 1081C1554.3 1081 1462.7 1081 1371.2 1081C1279.7 1081 1188.3 1081 1097 1081C1005.7 1081 914.3 1081 823 1081C731.7 1081 640.3 1081 548.8 1081C457.3 1081 365.7 1081 274.2 1081C182.7 1081 91.3 1081 45.7 1081L0 1081Z" fill="#f7770f"></path><path d="M0 784L45.7 771.8C91.3 759.7 182.7 735.3 274.2 736.3C365.7 737.3 457.3 763.7 548.8 770C640.3 776.3 731.7 762.7 823 773.8C914.3 785 1005.7 821 1097 816.2C1188.3 811.3 1279.7 765.7 1371.2 763.3C1462.7 761 1554.3 802 1645.8 814.3C1737.3 826.7 1828.7 810.3 1874.3 802.2L1920 794L1920 1081L1874.3 1081C1828.7 1081 1737.3 1081 1645.8 1081C1554.3 1081 1462.7 1081 1371.2 1081C1279.7 1081 1188.3 1081 1097 1081C1005.7 1081 914.3 1081 823 1081C731.7 1081 640.3 1081 548.8 1081C457.3 1081 365.7 1081 274.2 1081C182.7 1081 91.3 1081 45.7 1081L0 1081Z" fill="#f98619"></path><path d="M0 844L45.7 850.7C91.3 857.3 182.7 870.7 274.2 876.3C365.7 882 457.3 880 548.8 874.7C640.3 869.3 731.7 860.7 823 854.3C914.3 848 1005.7 844 1097 834.5C1188.3 825 1279.7 810 1371.2 803.7C1462.7 797.3 1554.3 799.7 1645.8 819.5C1737.3 839.3 1828.7 876.7 1874.3 895.3L1920 914L1920 1081L1874.3 1081C1828.7 1081 1737.3 1081 1645.8 1081C1554.3 1081 1462.7 1081 1371.2 1081C1279.7 1081 1188.3 1081 1097 1081C1005.7 1081 914.3 1081 823 1081C731.7 1081 640.3 1081 548.8 1081C457.3 1081 365.7 1081 274.2 1081C182.7 1081 91.3 1081 45.7 1081L0 1081Z" fill="#fa9424"></path><path d="M0 878L45.7 889.5C91.3 901 182.7 924 274.2 931.7C365.7 939.3 457.3 931.7 548.8 926.8C640.3 922 731.7 920 823 927.2C914.3 934.3 1005.7 950.7 1097 948C1188.3 945.3 1279.7 923.7 1371.2 924.8C1462.7 926 1554.3 950 1645.8 954.3C1737.3 958.7 1828.7 943.3 1874.3 935.7L1920 928L1920 1081L1874.3 1081C1828.7 1081 1737.3 1081 1645.8 1081C1554.3 1081 1462.7 1081 1371.2 1081C1279.7 1081 1188.3 1081 1097 1081C1005.7 1081 914.3 1081 823 1081C731.7 1081 640.3 1081 548.8 1081C457.3 1081 365.7 1081 274.2 1081C182.7 1081 91.3 1081 45.7 1081L0 1081Z" fill="#fba230"></path><path d="M0 947L45.7 955C91.3 963 182.7 979 274.2 983.8C365.7 988.7 457.3 982.3 548.8 975.7C640.3 969 731.7 962 823 963.8C914.3 965.7 1005.7 976.3 1097 984.8C1188.3 993.3 1279.7 999.7 1371.2 999C1462.7 998.3 1554.3 990.7 1645.8 984.7C1737.3 978.7 1828.7 974.3 1874.3 972.2L1920 970L1920 1081L1874.3 1081C1828.7 1081 1737.3 1081 1645.8 1081C1554.3 1081 1462.7 1081 1371.2 1081C1279.7 1081 1188.3 1081 1097 1081C1005.7 1081 914.3 1081 823 1081C731.7 1081 640.3 1081 548.8 1081C457.3 1081 365.7 1081 274.2 1081C182.7 1081 91.3 1081 45.7 1081L0 1081Z" fill="#fcaf3c"></path></svg>